<svg xmlns="http://www.w3.org/2000/svg" xmlns:xlink="http://www.w3.org/1999/xlink" width="42" zoomAndPan="magnify" viewBox="0 0 31.5 31.499999" height="42" preserveAspectRatio="xMidYMid meet" version="1.0"><defs><g/><clipPath id="72103753b0"><path d="M 0 0 L 31.007812 0 L 31.007812 31.007812 L 0 31.007812 Z M 0 0 " clip-rule="nonzero"/></clipPath><linearGradient x1="21" gradientTransform="matrix(0.738281, 0, 0, 0.738281, 0.0000005, 0)" y1="0" x2="21" gradientUnits="userSpaceOnUse" y2="41.999998" id="f71edaba52"><stop stop-opacity="1" stop-color="rgb(21.598816%, 5.899048%, 65.899658%)" offset="0"/><stop stop-opacity="1" stop-color="rgb(21.514893%, 6.089783%, 66.03241%)" offset="0.0078125"/><stop stop-opacity="1" stop-color="rgb(21.34552%, 6.472778%, 66.297913%)" offset="0.015625"/><stop stop-opacity="1" stop-color="rgb(21.177673%, 6.855774%, 66.564941%)" offset="0.0234375"/><stop stop-opacity="1" stop-color="rgb(21.008301%, 7.23877%, 66.830444%)" offset="0.03125"/><stop stop-opacity="1" stop-color="rgb(20.838928%, 7.621765%, 67.097473%)" offset="0.0390625"/><stop stop-opacity="1" stop-color="rgb(20.671082%, 8.004761%, 67.364502%)" offset="0.046875"/><stop stop-opacity="1" stop-color="rgb(20.501709%, 8.38623%, 67.630005%)" offset="0.0546875"/><stop stop-opacity="1" stop-color="rgb(20.333862%, 8.769226%, 67.897034%)" offset="0.0625"/><stop stop-opacity="1" stop-color="rgb(20.16449%, 9.152222%, 68.162537%)" offset="0.0703125"/><stop stop-opacity="1" stop-color="rgb(19.995117%, 9.535217%, 68.429565%)" offset="0.078125"/><stop stop-opacity="1" stop-color="rgb(19.827271%, 9.918213%, 68.696594%)" offset="0.0859375"/><stop stop-opacity="1" stop-color="rgb(19.657898%, 10.301208%, 68.962097%)" offset="0.09375"/><stop stop-opacity="1" stop-color="rgb(19.490051%, 10.684204%, 69.229126%)" offset="0.101562"/><stop stop-opacity="1" stop-color="rgb(19.320679%, 11.0672%, 69.494629%)" offset="0.109375"/><stop stop-opacity="1" stop-color="rgb(19.151306%, 11.448669%, 69.761658%)" offset="0.117188"/><stop stop-opacity="1" stop-color="rgb(18.983459%, 11.831665%, 70.028687%)" offset="0.125"/><stop stop-opacity="1" stop-color="rgb(18.814087%, 12.214661%, 70.294189%)" offset="0.132812"/><stop stop-opacity="1" stop-color="rgb(18.64624%, 12.597656%, 70.561218%)" offset="0.140625"/><stop stop-opacity="1" stop-color="rgb(18.476868%, 12.980652%, 70.826721%)" offset="0.148438"/><stop stop-opacity="1" stop-color="rgb(18.307495%, 13.363647%, 71.09375%)" offset="0.15625"/><stop stop-opacity="1" stop-color="rgb(18.139648%, 13.746643%, 71.360779%)" offset="0.164062"/><stop stop-opacity="1" stop-color="rgb(17.970276%, 14.129639%, 71.626282%)" offset="0.171875"/><stop stop-opacity="1" stop-color="rgb(17.802429%, 14.511108%, 71.893311%)" offset="0.179688"/><stop stop-opacity="1" stop-color="rgb(17.633057%, 14.894104%, 72.158813%)" offset="0.1875"/><stop stop-opacity="1" stop-color="rgb(17.463684%, 15.2771%, 72.425842%)" offset="0.195312"/><stop stop-opacity="1" stop-color="rgb(17.295837%, 15.660095%, 72.692871%)" offset="0.203125"/><stop stop-opacity="1" stop-color="rgb(17.126465%, 16.043091%, 72.958374%)" offset="0.210938"/><stop stop-opacity="1" stop-color="rgb(16.958618%, 16.426086%, 73.225403%)" offset="0.21875"/><stop stop-opacity="1" stop-color="rgb(16.789246%, 16.809082%, 73.490906%)" offset="0.226562"/><stop stop-opacity="1" stop-color="rgb(16.621399%, 17.192078%, 73.757935%)" offset="0.234375"/><stop stop-opacity="1" stop-color="rgb(16.452026%, 17.575073%, 74.023438%)" offset="0.242188"/><stop stop-opacity="1" stop-color="rgb(16.282654%, 17.956543%, 74.290466%)" offset="0.25"/><stop stop-opacity="1" stop-color="rgb(16.114807%, 18.339539%, 74.557495%)" offset="0.257812"/><stop stop-opacity="1" stop-color="rgb(15.945435%, 18.722534%, 74.822998%)" offset="0.265625"/><stop stop-opacity="1" stop-color="rgb(15.777588%, 19.10553%, 75.090027%)" offset="0.273438"/><stop stop-opacity="1" stop-color="rgb(15.608215%, 19.488525%, 75.35553%)" offset="0.28125"/><stop stop-opacity="1" stop-color="rgb(15.438843%, 19.871521%, 75.622559%)" offset="0.289062"/><stop stop-opacity="1" stop-color="rgb(15.270996%, 20.254517%, 75.889587%)" offset="0.296875"/><stop stop-opacity="1" stop-color="rgb(15.101624%, 20.637512%, 76.15509%)" offset="0.304688"/><stop stop-opacity="1" stop-color="rgb(14.933777%, 21.018982%, 76.422119%)" offset="0.3125"/><stop stop-opacity="1" stop-color="rgb(14.764404%, 21.401978%, 76.687622%)" offset="0.320312"/><stop stop-opacity="1" stop-color="rgb(14.595032%, 21.784973%, 76.954651%)" offset="0.328125"/><stop stop-opacity="1" stop-color="rgb(14.427185%, 22.167969%, 77.22168%)" offset="0.335938"/><stop stop-opacity="1" stop-color="rgb(14.257812%, 22.550964%, 77.487183%)" offset="0.34375"/><stop stop-opacity="1" stop-color="rgb(14.089966%, 22.93396%, 77.754211%)" offset="0.351562"/><stop stop-opacity="1" stop-color="rgb(13.920593%, 23.316956%, 78.019714%)" offset="0.359375"/><stop stop-opacity="1" stop-color="rgb(13.751221%, 23.699951%, 78.286743%)" offset="0.367188"/><stop stop-opacity="1" stop-color="rgb(13.583374%, 24.081421%, 78.553772%)" offset="0.375"/><stop stop-opacity="1" stop-color="rgb(13.414001%, 24.464417%, 78.819275%)" offset="0.382812"/><stop stop-opacity="1" stop-color="rgb(13.246155%, 24.847412%, 79.086304%)" offset="0.390625"/><stop stop-opacity="1" stop-color="rgb(13.076782%, 25.230408%, 79.351807%)" offset="0.398438"/><stop stop-opacity="1" stop-color="rgb(12.90741%, 25.613403%, 79.618835%)" offset="0.40625"/><stop stop-opacity="1" stop-color="rgb(12.739563%, 25.996399%, 79.885864%)" offset="0.414062"/><stop stop-opacity="1" stop-color="rgb(12.57019%, 26.379395%, 80.151367%)" offset="0.421875"/><stop stop-opacity="1" stop-color="rgb(12.402344%, 26.76239%, 80.418396%)" offset="0.429688"/><stop stop-opacity="1" stop-color="rgb(12.232971%, 27.145386%, 80.683899%)" offset="0.4375"/><stop stop-opacity="1" stop-color="rgb(12.065125%, 27.526855%, 80.950928%)" offset="0.445312"/><stop stop-opacity="1" stop-color="rgb(11.895752%, 27.909851%, 81.216431%)" offset="0.453125"/><stop stop-opacity="1" stop-color="rgb(11.726379%, 28.292847%, 81.483459%)" offset="0.460938"/><stop stop-opacity="1" stop-color="rgb(11.558533%, 28.675842%, 81.750488%)" offset="0.46875"/><stop stop-opacity="1" stop-color="rgb(11.38916%, 29.058838%, 82.015991%)" offset="0.476562"/><stop stop-opacity="1" stop-color="rgb(11.221313%, 29.441833%, 82.28302%)" offset="0.484375"/><stop stop-opacity="1" stop-color="rgb(11.051941%, 29.824829%, 82.548523%)" offset="0.492188"/><stop stop-opacity="1" stop-color="rgb(10.882568%, 30.207825%, 82.815552%)" offset="0.5"/><stop stop-opacity="1" stop-color="rgb(10.714722%, 30.589294%, 83.082581%)" offset="0.507812"/><stop stop-opacity="1" stop-color="rgb(10.545349%, 30.97229%, 83.348083%)" offset="0.515625"/><stop stop-opacity="1" stop-color="rgb(10.377502%, 31.355286%, 83.615112%)" offset="0.523438"/><stop stop-opacity="1" stop-color="rgb(10.20813%, 31.738281%, 83.880615%)" offset="0.53125"/><stop stop-opacity="1" stop-color="rgb(10.038757%, 32.121277%, 84.147644%)" offset="0.539062"/><stop stop-opacity="1" stop-color="rgb(9.870911%, 32.504272%, 84.414673%)" offset="0.546875"/><stop stop-opacity="1" stop-color="rgb(9.701538%, 32.887268%, 84.680176%)" offset="0.554688"/><stop stop-opacity="1" stop-color="rgb(9.533691%, 33.270264%, 84.947205%)" offset="0.5625"/><stop stop-opacity="1" stop-color="rgb(9.364319%, 33.651733%, 85.212708%)" offset="0.570312"/><stop stop-opacity="1" stop-color="rgb(9.194946%, 34.034729%, 85.479736%)" offset="0.578125"/><stop stop-opacity="1" stop-color="rgb(9.0271%, 34.417725%, 85.746765%)" offset="0.585938"/><stop stop-opacity="1" stop-color="rgb(8.857727%, 34.80072%, 86.012268%)" offset="0.59375"/><stop stop-opacity="1" stop-color="rgb(8.68988%, 35.183716%, 86.279297%)" offset="0.601562"/><stop stop-opacity="1" stop-color="rgb(8.520508%, 35.566711%, 86.5448%)" offset="0.609375"/><stop stop-opacity="1" stop-color="rgb(8.352661%, 35.949707%, 86.811829%)" offset="0.617188"/><stop stop-opacity="1" stop-color="rgb(8.183289%, 36.332703%, 87.077332%)" offset="0.625"/><stop stop-opacity="1" stop-color="rgb(8.013916%, 36.715698%, 87.34436%)" offset="0.632812"/><stop stop-opacity="1" stop-color="rgb(7.846069%, 37.097168%, 87.611389%)" offset="0.640625"/><stop stop-opacity="1" stop-color="rgb(7.676697%, 37.480164%, 87.876892%)" offset="0.648438"/><stop stop-opacity="1" stop-color="rgb(7.50885%, 37.863159%, 88.143921%)" offset="0.65625"/><stop stop-opacity="1" stop-color="rgb(7.339478%, 38.246155%, 88.409424%)" offset="0.664062"/><stop stop-opacity="1" stop-color="rgb(7.170105%, 38.62915%, 88.676453%)" offset="0.671875"/><stop stop-opacity="1" stop-color="rgb(7.002258%, 39.012146%, 88.943481%)" offset="0.679688"/><stop stop-opacity="1" stop-color="rgb(6.832886%, 39.395142%, 89.208984%)" offset="0.6875"/><stop stop-opacity="1" stop-color="rgb(6.665039%, 39.778137%, 89.476013%)" offset="0.695312"/><stop stop-opacity="1" stop-color="rgb(6.495667%, 40.159607%, 89.741516%)" offset="0.703125"/><stop stop-opacity="1" stop-color="rgb(6.326294%, 40.542603%, 90.008545%)" offset="0.710938"/><stop stop-opacity="1" stop-color="rgb(6.158447%, 40.925598%, 90.275574%)" offset="0.71875"/><stop stop-opacity="1" stop-color="rgb(5.989075%, 41.308594%, 90.541077%)" offset="0.726562"/><stop stop-opacity="1" stop-color="rgb(5.821228%, 41.691589%, 90.808105%)" offset="0.734375"/><stop stop-opacity="1" stop-color="rgb(5.651855%, 42.074585%, 91.073608%)" offset="0.742188"/><stop stop-opacity="1" stop-color="rgb(5.482483%, 42.457581%, 91.340637%)" offset="0.75"/><stop stop-opacity="1" stop-color="rgb(5.314636%, 42.840576%, 91.607666%)" offset="0.757812"/><stop stop-opacity="1" stop-color="rgb(5.145264%, 43.222046%, 91.873169%)" offset="0.765625"/><stop stop-opacity="1" stop-color="rgb(4.977417%, 43.605042%, 92.140198%)" offset="0.773438"/><stop stop-opacity="1" stop-color="rgb(4.808044%, 43.988037%, 92.405701%)" offset="0.78125"/><stop stop-opacity="1" stop-color="rgb(4.638672%, 44.371033%, 92.672729%)" offset="0.789062"/><stop stop-opacity="1" stop-color="rgb(4.470825%, 44.754028%, 92.939758%)" offset="0.796875"/><stop stop-opacity="1" stop-color="rgb(4.301453%, 45.137024%, 93.205261%)" offset="0.804688"/><stop stop-opacity="1" stop-color="rgb(4.133606%, 45.52002%, 93.47229%)" offset="0.8125"/><stop stop-opacity="1" stop-color="rgb(3.964233%, 45.903015%, 93.737793%)" offset="0.820312"/><stop stop-opacity="1" stop-color="rgb(3.796387%, 46.286011%, 94.004822%)" offset="0.828125"/><stop stop-opacity="1" stop-color="rgb(3.627014%, 46.66748%, 94.270325%)" offset="0.835938"/><stop stop-opacity="1" stop-color="rgb(3.457642%, 47.050476%, 94.537354%)" offset="0.84375"/><stop stop-opacity="1" stop-color="rgb(3.289795%, 47.433472%, 94.804382%)" offset="0.851562"/><stop stop-opacity="1" stop-color="rgb(3.120422%, 47.816467%, 95.069885%)" offset="0.859375"/><stop stop-opacity="1" stop-color="rgb(2.952576%, 48.199463%, 95.336914%)" offset="0.867188"/><stop stop-opacity="1" stop-color="rgb(2.783203%, 48.582458%, 95.602417%)" offset="0.875"/><stop stop-opacity="1" stop-color="rgb(2.613831%, 48.965454%, 95.869446%)" offset="0.882812"/><stop stop-opacity="1" stop-color="rgb(2.445984%, 49.34845%, 96.136475%)" offset="0.890625"/><stop stop-opacity="1" stop-color="rgb(2.276611%, 49.729919%, 96.401978%)" offset="0.898438"/><stop stop-opacity="1" stop-color="rgb(2.108765%, 50.112915%, 96.669006%)" offset="0.90625"/><stop stop-opacity="1" stop-color="rgb(1.939392%, 50.495911%, 96.934509%)" offset="0.914062"/><stop stop-opacity="1" stop-color="rgb(1.77002%, 50.878906%, 97.201538%)" offset="0.921875"/><stop stop-opacity="1" stop-color="rgb(1.602173%, 51.261902%, 97.468567%)" offset="0.929688"/><stop stop-opacity="1" stop-color="rgb(1.4328%, 51.644897%, 97.73407%)" offset="0.9375"/><stop stop-opacity="1" stop-color="rgb(1.264954%, 52.027893%, 98.001099%)" offset="0.945312"/><stop stop-opacity="1" stop-color="rgb(1.095581%, 52.410889%, 98.266602%)" offset="0.953125"/><stop stop-opacity="1" stop-color="rgb(0.926208%, 52.792358%, 98.53363%)" offset="0.960938"/><stop stop-opacity="1" stop-color="rgb(0.758362%, 53.175354%, 98.800659%)" offset="0.96875"/><stop stop-opacity="1" stop-color="rgb(0.588989%, 53.55835%, 99.066162%)" offset="0.976562"/><stop stop-opacity="1" stop-color="rgb(0.421143%, 53.941345%, 99.333191%)" offset="0.984375"/><stop stop-opacity="1" stop-color="rgb(0.25177%, 54.324341%, 99.598694%)" offset="0.992188"/><stop stop-opacity="1" stop-color="rgb(0.0839233%, 54.707336%, 99.865723%)" offset="1"/></linearGradient><clipPath id="cc00a92075"><path d="M 5 10 L 26.726562 10 L 26.726562 26.476562 L 5 26.476562 Z M 5 10 " clip-rule="nonzero"/></clipPath><clipPath id="cc9ab36dd3"><path d="M 1.625 4.328125 L 26.726562 4.328125 L 26.726562 15 L 1.625 15 Z M 1.625 4.328125 " clip-rule="nonzero"/></clipPath></defs><g clip-path="url(#72103753b0)"><path fill="#ffffff" d="M 0 0 L 31.007812 0 L 31.007812 31.007812 L 0 31.007812 Z M 0 0 " fill-opacity="1" fill-rule="nonzero"/><path fill="url(#f71edaba52)" d="M 0 0 L 0 31.007812 L 31.007812 31.007812 L 31.007812 0 Z M 0 0 " fill-rule="nonzero"/></g><g clip-path="url(#cc00a92075)"><path fill="#ffffff" d="M 22.523438 15.175781 C 20.359375 14.980469 18.515625 15.777344 17.742188 16.175781 C 17.621094 16.234375 17.503906 16.296875 17.386719 16.375 C 17.367188 16.382812 17.359375 16.394531 17.359375 16.394531 C 17.460938 16.359375 18.882812 15.839844 20.75 15.695312 L 20.753906 15.695312 C 21.421875 15.644531 22.148438 15.640625 22.886719 15.730469 L 22.890625 15.730469 C 23.140625 15.746094 23.394531 15.773438 23.640625 15.808594 C 23.929688 15.832031 24.226562 15.964844 24.347656 16.242188 C 24.273438 16.414062 24.175781 16.734375 24.433594 16.804688 C 24.914062 17.101562 25.859375 17.132812 25.699219 17.878906 C 25.515625 17.84375 25.339844 17.792969 25.15625 17.765625 C 24.675781 17.636719 24.191406 17.628906 23.710938 17.738281 C 22.890625 17.792969 22.261719 18.371094 21.699219 18.910156 C 20.917969 19.644531 19.941406 20.074219 18.984375 20.511719 C 18.296875 20.734375 17.589844 20.902344 16.878906 21.015625 C 16.261719 21.109375 15.667969 21.058594 15.046875 21.074219 C 13.429688 21.113281 11.792969 21.492188 10.308594 22.121094 C 8.890625 22.71875 7.578125 23.570312 6.523438 24.691406 C 6.402344 24.824219 6.277344 24.957031 6.167969 25.09375 C 5.878906 25.515625 5.039062 26.210938 6.050781 26.347656 C 12.320312 26.675781 18.6875 26.390625 24.996094 26.488281 C 25.417969 26.484375 25.808594 26.332031 26.125 26.082031 C 26.632812 25.695312 26.90625 25.074219 26.90625 24.433594 L 26.90625 10.980469 C 26.839844 11.070312 26.75 11.222656 26.679688 11.324219 C 25.699219 12.972656 24.246094 14.335938 22.523438 15.175781 Z M 19.667969 15.523438 L 19.671875 15.519531 C 19.671875 15.523438 19.671875 15.523438 19.667969 15.523438 Z M 19.667969 15.523438 " fill-opacity="1" fill-rule="nonzero"/></g><path fill="#ffffff" d="M 10.300781 18.617188 C 10.066406 18.566406 9.835938 18.511719 9.613281 18.453125 C 6.660156 17.617188 5.269531 15.757812 4.898438 15.191406 C 4.828125 15.085938 4.796875 15.023438 4.796875 15.023438 L 4.796875 16.992188 C 4.789062 17.585938 4.792969 18.179688 4.796875 18.773438 L 4.796875 20.695312 L 5.335938 20.707031 L 6.078125 20.714844 C 7.390625 20.648438 9.382812 20.253906 10.300781 18.617188 Z M 10.300781 18.617188 " fill-opacity="1" fill-rule="nonzero"/><g clip-path="url(#cc9ab36dd3)"><path fill="#ffffff" d="M 25.660156 8.433594 C 26.433594 7.5 26.875 6.757812 26.898438 6.710938 C 26.898438 6.710938 26.898438 6.707031 26.898438 6.707031 L 26.898438 6.046875 C 26.808594 5.675781 26.683594 5.296875 26.394531 5.023438 C 26.320312 4.941406 26.234375 4.871094 26.148438 4.804688 C 25.804688 4.558594 25.402344 4.414062 24.984375 4.371094 L 24.273438 4.371094 L 7.476562 4.359375 L 7.164062 4.359375 C 7.074219 4.355469 6.976562 4.355469 6.886719 4.351562 C 6.101562 4.328125 5.347656 4.730469 4.980469 5.417969 C 4.878906 5.597656 4.808594 5.796875 4.773438 6.003906 L 4.773438 9.246094 L 4.78125 9.246094 C 5.125 9.582031 5.511719 9.875 5.871094 10.199219 C 6.34375 10.605469 6.859375 10.972656 7.375 11.328125 C 8.210938 11.9375 9.105469 12.46875 10.066406 12.851562 C 9.191406 12.714844 8.363281 12.457031 7.589844 12.117188 C 6.230469 11.53125 5.039062 10.707031 4.089844 9.914062 C 3.929688 9.777344 3.773438 9.648438 3.625 9.515625 C 2.417969 8.425781 1.691406 7.488281 1.628906 7.414062 C 1.664062 7.5 2.128906 8.621094 3.285156 9.957031 C 5.210938 12.175781 7.886719 13.597656 10.742188 14.222656 C 15.589844 15.273438 20.535156 13.917969 24.535156 11.0625 C 26.101562 9.882812 26.851562 8.863281 26.894531 8.808594 C 26.894531 8.804688 26.894531 7.832031 26.894531 7.832031 C 25.917969 8.996094 24.832031 10.0625 23.492188 10.800781 C 23.085938 11.058594 22.664062 11.328125 22.191406 11.445312 C 23.660156 10.621094 24.847656 9.425781 25.660156 8.433594 Z M 25.660156 8.433594 " fill-opacity="1" fill-rule="nonzero"/></g><g fill="#2213cd" fill-opacity="1"><g transform="translate(9.843743, 2.641405)"><g><path d="M 0.625 0.015625 C 0.53125 0.015625 0.441406 0.00390625 0.359375 -0.015625 C 0.285156 -0.0351562 0.222656 -0.0664062 0.171875 -0.109375 C 0.117188 -0.148438 0.0820312 -0.191406 0.0625 -0.234375 L 0.203125 -0.421875 L 0.234375 -0.421875 C 0.273438 -0.359375 0.328125 -0.304688 0.390625 -0.265625 C 0.460938 -0.234375 0.539062 -0.21875 0.625 -0.21875 C 0.695312 -0.21875 0.75 -0.234375 0.78125 -0.265625 C 0.820312 -0.296875 0.84375 -0.335938 0.84375 -0.390625 C 0.84375 -0.429688 0.835938 -0.460938 0.828125 -0.484375 C 0.816406 -0.503906 0.796875 -0.519531 0.765625 -0.53125 C 0.742188 -0.550781 0.707031 -0.566406 0.65625 -0.578125 L 0.46875 -0.625 C 0.34375 -0.65625 0.25 -0.703125 0.1875 -0.765625 C 0.125 -0.828125 0.09375 -0.914062 0.09375 -1.03125 C 0.09375 -1.101562 0.113281 -1.171875 0.15625 -1.234375 C 0.195312 -1.296875 0.253906 -1.34375 0.328125 -1.375 C 0.410156 -1.40625 0.503906 -1.421875 0.609375 -1.421875 C 0.710938 -1.421875 0.800781 -1.40625 0.875 -1.375 C 0.957031 -1.351562 1.023438 -1.3125 1.078125 -1.25 L 0.9375 -1.0625 L 0.921875 -1.0625 C 0.878906 -1.101562 0.832031 -1.132812 0.78125 -1.15625 C 0.726562 -1.175781 0.671875 -1.1875 0.609375 -1.1875 C 0.523438 -1.1875 0.460938 -1.171875 0.421875 -1.140625 C 0.390625 -1.117188 0.375 -1.082031 0.375 -1.03125 C 0.375 -0.988281 0.382812 -0.953125 0.40625 -0.921875 C 0.4375 -0.898438 0.488281 -0.882812 0.5625 -0.875 L 0.734375 -0.828125 C 0.878906 -0.796875 0.976562 -0.742188 1.03125 -0.671875 C 1.09375 -0.609375 1.125 -0.523438 1.125 -0.421875 C 1.125 -0.328125 1.101562 -0.25 1.0625 -0.1875 C 1.03125 -0.125 0.976562 -0.0703125 0.90625 -0.03125 C 0.832031 0 0.738281 0.015625 0.625 0.015625 Z M 0.625 0.015625 "/></g></g><g transform="translate(11.051142, 2.641405)"><g><path d="M 0.1875 0 L 0.1875 -1.40625 L 0.453125 -1.40625 L 0.453125 -0.828125 L 0.484375 -0.828125 L 0.953125 -1.40625 L 1.25 -1.40625 L 1.25 -1.375 L 0.734375 -0.734375 L 1.296875 -0.03125 L 1.296875 0 L 0.984375 0 L 0.484375 -0.609375 L 0.453125 -0.609375 L 0.453125 0 Z M 0.1875 0 "/></g></g><g transform="translate(12.349864, 2.641405)"><g><path d="M 0.765625 0 L 0.5 0 L 0.5 -0.546875 L 0 -1.40625 L 0.3125 -1.40625 L 0.625 -0.859375 L 0.65625 -0.859375 L 0.96875 -1.40625 L 1.25 -1.40625 L 0.765625 -0.546875 Z M 0.765625 0 "/></g></g><g transform="translate(13.612058, 2.641405)"><g><path d="M 1.078125 -1.40625 L 1.078125 -1.171875 L 0.453125 -1.171875 L 0.453125 -0.796875 L 1.015625 -0.796875 L 1.015625 -0.578125 L 0.453125 -0.578125 L 0.453125 0 L 0.1875 0 L 0.1875 -1.40625 Z M 1.078125 -1.40625 "/></g></g><g transform="translate(14.74832, 2.641405)"><g><path d="M 0.75 0.015625 C 0.550781 0.015625 0.40625 -0.0234375 0.3125 -0.109375 C 0.21875 -0.203125 0.171875 -0.34375 0.171875 -0.53125 L 0.171875 -1.40625 L 0.453125 -1.40625 L 0.453125 -0.53125 C 0.453125 -0.425781 0.472656 -0.347656 0.515625 -0.296875 C 0.566406 -0.242188 0.644531 -0.21875 0.75 -0.21875 C 0.945312 -0.21875 1.046875 -0.320312 1.046875 -0.53125 L 1.046875 -1.40625 L 1.3125 -1.40625 L 1.3125 -0.53125 C 1.3125 -0.34375 1.265625 -0.203125 1.171875 -0.109375 C 1.078125 -0.0234375 0.9375 0.015625 0.75 0.015625 Z M 0.75 0.015625 "/></g></g><g transform="translate(16.238343, 2.641405)"><g><path d="M 0.625 0.015625 C 0.53125 0.015625 0.441406 0.00390625 0.359375 -0.015625 C 0.285156 -0.0351562 0.222656 -0.0664062 0.171875 -0.109375 C 0.117188 -0.148438 0.0820312 -0.191406 0.0625 -0.234375 L 0.203125 -0.421875 L 0.234375 -0.421875 C 0.273438 -0.359375 0.328125 -0.304688 0.390625 -0.265625 C 0.460938 -0.234375 0.539062 -0.21875 0.625 -0.21875 C 0.695312 -0.21875 0.75 -0.234375 0.78125 -0.265625 C 0.820312 -0.296875 0.84375 -0.335938 0.84375 -0.390625 C 0.84375 -0.429688 0.835938 -0.460938 0.828125 -0.484375 C 0.816406 -0.503906 0.796875 -0.519531 0.765625 -0.53125 C 0.742188 -0.550781 0.707031 -0.566406 0.65625 -0.578125 L 0.46875 -0.625 C 0.34375 -0.65625 0.25 -0.703125 0.1875 -0.765625 C 0.125 -0.828125 0.09375 -0.914062 0.09375 -1.03125 C 0.09375 -1.101562 0.113281 -1.171875 0.15625 -1.234375 C 0.195312 -1.296875 0.253906 -1.34375 0.328125 -1.375 C 0.410156 -1.40625 0.503906 -1.421875 0.609375 -1.421875 C 0.710938 -1.421875 0.800781 -1.40625 0.875 -1.375 C 0.957031 -1.351562 1.023438 -1.3125 1.078125 -1.25 L 0.9375 -1.0625 L 0.921875 -1.0625 C 0.878906 -1.101562 0.832031 -1.132812 0.78125 -1.15625 C 0.726562 -1.175781 0.671875 -1.1875 0.609375 -1.1875 C 0.523438 -1.1875 0.460938 -1.171875 0.421875 -1.140625 C 0.390625 -1.117188 0.375 -1.082031 0.375 -1.03125 C 0.375 -0.988281 0.382812 -0.953125 0.40625 -0.921875 C 0.4375 -0.898438 0.488281 -0.882812 0.5625 -0.875 L 0.734375 -0.828125 C 0.878906 -0.796875 0.976562 -0.742188 1.03125 -0.671875 C 1.09375 -0.609375 1.125 -0.523438 1.125 -0.421875 C 1.125 -0.328125 1.101562 -0.25 1.0625 -0.1875 C 1.03125 -0.125 0.976562 -0.0703125 0.90625 -0.03125 C 0.832031 0 0.738281 0.015625 0.625 0.015625 Z M 0.625 0.015625 "/></g></g><g transform="translate(17.445741, 2.641405)"><g><path d="M 0.453125 0 L 0.1875 0 L 0.1875 -1.40625 L 0.453125 -1.40625 Z M 0.453125 0 "/></g></g><g transform="translate(18.089816, 2.641405)"><g><path d="M 0.765625 0.015625 C 0.640625 0.015625 0.523438 -0.0078125 0.421875 -0.0625 C 0.328125 -0.113281 0.25 -0.191406 0.1875 -0.296875 C 0.132812 -0.410156 0.109375 -0.546875 0.109375 -0.703125 C 0.109375 -0.859375 0.132812 -0.988281 0.1875 -1.09375 C 0.25 -1.207031 0.328125 -1.289062 0.421875 -1.34375 C 0.523438 -1.394531 0.640625 -1.421875 0.765625 -1.421875 C 0.890625 -1.421875 1 -1.394531 1.09375 -1.34375 C 1.195312 -1.289062 1.273438 -1.207031 1.328125 -1.09375 C 1.390625 -0.988281 1.421875 -0.859375 1.421875 -0.703125 C 1.421875 -0.546875 1.390625 -0.410156 1.328125 -0.296875 C 1.273438 -0.191406 1.195312 -0.113281 1.09375 -0.0625 C 1 -0.0078125 0.890625 0.015625 0.765625 0.015625 Z M 0.765625 -0.21875 C 0.878906 -0.21875 0.96875 -0.253906 1.03125 -0.328125 C 1.101562 -0.410156 1.140625 -0.535156 1.140625 -0.703125 C 1.140625 -0.867188 1.101562 -0.988281 1.03125 -1.0625 C 0.96875 -1.144531 0.878906 -1.1875 0.765625 -1.1875 C 0.648438 -1.1875 0.554688 -1.144531 0.484375 -1.0625 C 0.421875 -0.988281 0.390625 -0.867188 0.390625 -0.703125 C 0.390625 -0.535156 0.421875 -0.410156 0.484375 -0.328125 C 0.554688 -0.253906 0.648438 -0.21875 0.765625 -0.21875 Z M 0.765625 -0.21875 "/></g></g><g transform="translate(19.621174, 2.641405)"><g><path d="M 0.453125 0 L 0.1875 0 L 0.1875 -1.40625 L 0.5 -1.40625 L 1.0625 -0.5 L 1.09375 -0.5 L 1.09375 -1.40625 L 1.359375 -1.40625 L 1.359375 0 L 1.078125 0 L 0.46875 -0.96875 L 0.453125 -0.96875 Z M 0.453125 0 "/></g></g></g></svg>